<svg xmlns="http://www.w3.org/2000/svg" version="1.1" xmlns:xlink="http://www.w3.org/1999/xlink" xmlns:svgjs="http://svgjs.com/svgjs" width="1440" height="560" preserveAspectRatio="none" viewBox="0 0 1440 560"><g mask="url(&quot;#SvgjsMask1308&quot;)" fill="none"><rect width="1440" height="560" x="0" y="0" fill="url(#SvgjsRadialGradient1309)"></rect><path d="M0 0L557.67 0L0 128.16z" fill="rgba(255, 255, 255, .1)"></path><path d="M0 128.16L557.67 0L732.18 0L0 315.79999999999995z" fill="rgba(255, 255, 255, .075)"></path><path d="M0 315.79999999999995L732.18 0L997.73 0L0 363.0799999999999z" fill="rgba(255, 255, 255, .05)"></path><path d="M0 363.0799999999999L997.73 0L1176.46 0L0 496.2799999999999z" fill="rgba(255, 255, 255, .025)"></path><path d="M1440 560L1311.96 560L1440 394.19z" fill="rgba(0, 0, 0, .1)"></path><path d="M1440 394.19L1311.96 560L703.82 560L1440 208.35z" fill="rgba(0, 0, 0, .075)"></path><path d="M1440 208.35000000000002L703.82 560L360.80000000000007 560L1440 116.39000000000003z" fill="rgba(0, 0, 0, .05)"></path><path d="M1440 116.39000000000004L360.8000000000002 560L304.96000000000015 560L1440 68.69000000000004z" fill="rgba(0, 0, 0, .025)"></path></g><defs><mask id="SvgjsMask1308"><rect width="1440" height="560" fill="#ffffff"></rect></mask><radialGradient cx="50%" cy="50%" r="772.53" gradientUnits="userSpaceOnUse" id="SvgjsRadialGradient1309"><stop stop-color="rgba(25, 140, 74, 1)" offset="0"></stop><stop stop-color="rgba(24, 106, 59, 1)" offset="1"></stop></radialGradient></defs></svg>