<svg xmlns="http://www.w3.org/2000/svg" version="1.1" xmlns:xlink="http://www.w3.org/1999/xlink" xmlns:svgjs="http://svgjs.com/svgjs" width="1440" height="560" preserveAspectRatio="none" viewBox="0 0 1440 560"><g mask="url(&quot;#SvgjsMask1001&quot;)" fill="none"><rect width="1440" height="560" x="0" y="0" fill="rgba(21, 67, 96, 1)"></rect><path d="M0,432.565C78.586,445.018,140.466,362.007,196.077,305.101C242.861,257.227,269.747,196.511,292.278,133.479C313.134,75.135,326.975,15.483,321.67,-46.249C316.134,-110.667,297.729,-173.011,261.346,-226.458C221.88,-284.434,174.366,-345.049,106.424,-362.447C38.98,-379.718,-26.848,-338.475,-93.149,-317.236C-157.693,-296.56,-229.731,-288.626,-276.66,-239.727C-324.476,-189.904,-335.545,-117.888,-349.393,-50.235C-364.032,21.281,-398.413,102.447,-359.32,164.096C-319.84,226.357,-218.891,204.577,-159.832,248.703C-93.433,298.314,-81.865,419.592,0,432.565" fill="#11364d"></path><path d="M1440 1052.4940000000001C1561.48 1076.85 1694.532 1185.221 1798.307 1117.537 1902.305 1049.7069999999999 1844.345 880.443 1884.127 762.826 1918.354 661.635 2016.317 584.163 2014.842 477.35 2013.309 366.376 1937.1779999999999 274.782 1876.107 182.111 1806.42 76.36599999999999 1750.182-50.27099999999996 1633.97-100.60000000000002 1513.835-152.62800000000004 1364.975-150.71299999999997 1249.339-89.332 1138.692-30.599000000000046 1121.693 118.44600000000003 1040.923 214.19799999999998 961.7139999999999 308.099 808.144 345.401 781.474 465.318 754.853 585.012 838.053 702.8050000000001 910.203 801.95 973.387 888.774 1066.414 944.355 1163.488 990.262 1250.661 1031.4859999999999 1345.453 1033.538 1440 1052.4940000000001" fill="#195073"></path></g><defs><mask id="SvgjsMask1001"><rect width="1440" height="560" fill="#ffffff"></rect></mask></defs></svg>